<?xml version="1.0" encoding="UTF-8" standalone="no"?>
<svg
   xmlns:dc="http://purl.org/dc/elements/1.1/"
   xmlns:cc="http://creativecommons.org/ns#"
   xmlns:rdf="http://www.w3.org/1999/02/22-rdf-syntax-ns#"
   xmlns:svg="http://www.w3.org/2000/svg"
   xmlns="http://www.w3.org/2000/svg"
   xmlns:sodipodi="http://sodipodi.sourceforge.net/DTD/sodipodi-0.dtd"
   xmlns:inkscape="http://www.inkscape.org/namespaces/inkscape"
   width="126.70287mm"
   height="164.98914mm"
   viewBox="0 0 126.70287 164.98914"
   version="1.1"
   id="svg8"
   inkscape:version="1.0 (6e3e5246a0, 2020-05-07)"
   sodipodi:docname="book.svg">
  <defs
     id="defs2" />
  <sodipodi:namedview
     fit-margin-bottom="0"
     fit-margin-right="0"
     fit-margin-left="0"
     fit-margin-top="0"
     id="base"
     pagecolor="#ffffff"
     bordercolor="#666666"
     borderopacity="1.0"
     inkscape:pageopacity="0.0"
     inkscape:pageshadow="2"
     inkscape:zoom="1.3075636"
     inkscape:cx="157.28267"
     inkscape:cy="282.70779"
     inkscape:document-units="mm"
     inkscape:current-layer="layer1"
     inkscape:document-rotation="0"
     showgrid="false"
     inkscape:window-width="1848"
     inkscape:window-height="1136"
     inkscape:window-x="981"
     inkscape:window-y="796"
     inkscape:window-maximized="0"
     inkscape:object-nodes="false"
     inkscape:snap-nodes="false"
     inkscape:snap-others="true" />
  <metadata
     id="metadata5">
    <rdf:RDF>
      <cc:Work
         rdf:about="">
        <dc:format>image/svg+xml</dc:format>
        <dc:type
           rdf:resource="http://purl.org/dc/dcmitype/StillImage" />
        <dc:title></dc:title>
      </cc:Work>
    </rdf:RDF>
  </metadata>
  <g
     transform="translate(-40.164545,-49.419862)"
     inkscape:label="Layer 1"
     inkscape:groupmode="layer"
     id="layer1">
    <path
       sodipodi:nodetypes="csssscc"
       d="m 52.857475,77.009497 91.423575,-8.405292 c 4.10172,-0.3771 7.76627,2.559522 8.21647,6.584359 l 13.64229,121.962816 c 0.4502,4.02484 -2.48947,7.56864 -6.59118,7.94574 l -91.423545,8.40549 z"
       style="fill:#afdde9;stroke:#000000;stroke-width:1.365"
       id="rect10-3" />
    <path
       style="fill:none;stroke:#000000;stroke-width:0.264583px;stroke-linecap:butt;stroke-linejoin:miter;stroke-opacity:1"
       d="m 65.829769,195.18297 2.438609,17.40338"
       id="path2797" />
    <path
       id="rect17"
       style="fill:#afdde9;stroke:#000000;stroke-width:1.36364;stroke-miterlimit:4;stroke-dasharray:none"
       d="m 47.362909,58.691832 2.82596,-0.260258 15.275187,136.623516 -2.825959,0.26027 z" />
    <path
       style="fill:#d7eef4;stroke:#000000;stroke-width:1.365;stroke-linecap:butt;stroke-linejoin:miter;stroke-miterlimit:4;stroke-dasharray:none;stroke-opacity:1"
       d="M 57.745585,202.95719 40.856262,65.768415 c -0.20102,-5.867057 2.925144,-8.46749 6.420302,-7.583637 L 62.441211,194.24063 Z"
       id="path2809"
       sodipodi:nodetypes="ccc" />
    <path
       style="fill:#afdde9;stroke:#000000;stroke-width:1.60759;stroke-miterlimit:4;stroke-dasharray:none"
       id="path2836"
       sodipodi:type="arc"
       sodipodi:cx="66.205017"
       sodipodi:cy="203.21689"
       sodipodi:rx="8.4171495"
       sodipodi:ry="10.388779"
       sodipodi:start="1.4556507"
       sodipodi:end="4.6155138"
       sodipodi:arc-type="slice"
       d="m 67.172075,213.53687 a 8.4171495,10.388779 0 0 1 -7.75516,-4.17723 8.4171495,10.388779 0 0 1 -0.895328,-10.38489 8.4171495,10.388779 0 0 1 6.869292,-6.09793 l 0.814138,10.34007 z" />
    <path
       d="m 67.555384,210.51701 a 6.7963009,7.2506514 0 0 1 -6.206148,-3.21016 6.7963009,7.2506514 0 0 1 -0.378997,-7.3471 6.7963009,7.2506514 0 0 1 5.83848,-3.91733 l 0.198544,7.24756 z"
       sodipodi:arc-type="slice"
       sodipodi:end="4.6831713"
       sodipodi:start="1.4900587"
       sodipodi:ry="7.2506514"
       sodipodi:rx="6.7963009"
       sodipodi:cy="203.28998"
       sodipodi:cx="67.007263"
       sodipodi:type="arc"
       id="path2836-7"
       style="fill:#00112b;stroke:#000000;stroke-width:1.22782;stroke-miterlimit:4;stroke-dasharray:none" />
    <path
       style="fill:#f4eed7;stroke:#000000;stroke-width:1.365;stroke-linecap:butt;stroke-linejoin:miter;stroke-miterlimit:4;stroke-dasharray:none;stroke-opacity:1"
       d="m 65.96273,193.91456 1.793115,15.13766 94.585225,-9.93888 c 0,0 -2.92376,-7.55528 -1.03097,-16.0584 z"
       id="path2801"
       sodipodi:nodetypes="ccccc" />
    <path
       id="rect10"
       style="fill:#d7eef4;stroke:#000000;stroke-width:1.365"
       d="m 50.720256,58.540146 91.423564,-8.405291 c 4.10172,-0.3771 7.76627,2.559522 8.21647,6.584358 l 13.64229,121.962817 c 0.45021,4.02484 -2.48946,7.56864 -6.59117,7.94574 l -91.423545,8.40549 z"
       sodipodi:nodetypes="csssscc" />
  </g>
</svg>
