<svg version="1.1" xmlns="http://www.w3.org/2000/svg" xmlns:xlink="http://www.w3.org/1999/xlink" viewBox="0 0 96.6 78.3" fill="#f63e5f">
	<path d="M9.4,66.4C9,64.8,8.2,64.1,7,64.1c-1.7,0-3.2,2.6-3.2,5.7c0,3.2,1.3,5.5,3.1,5.5c1.2,0,2-0.7,2.4-2.1
		l2.9,0.9c-0.4,1.3-0.8,1.9-1.4,2.6c-1,1-2.5,1.7-3.9,1.7c-1.5,0-3-0.7-4-1.7c-1.4-1.5-2.2-4-2.2-7c0-2.8,0.6-4.9,2-6.5
		c1.1-1.3,2.6-2,4.2-2c1.4,0,2.7,0.5,3.7,1.5c0.9,0.8,1.2,1.6,1.6,3.2L9.4,66.4z"/>
	<path d="M27.7,63.2c1.1,1.4,1.6,3.3,1.6,6.2c0,3.5-0.7,5.9-2.3,7.4c-1,1-2.3,1.5-3.8,1.5c-1.6,0-3.1-0.6-4.1-1.8
		c-1.3-1.5-1.9-3.5-1.9-6.8c0-2,0.4-4.4,1-5.5c1-2,2.8-3.2,4.9-3.2C25,61.1,26.6,61.9,27.7,63.2z M20.4,70c0,3.5,0.9,5.2,2.9,5.2
		c1.9,0,3-2,3-5.6c0-3.7-0.9-5.4-2.8-5.4C21.3,64.2,20.4,66.1,20.4,70z"/>
	<path d="M46.8,68.9v0.4c0,2.2-0.1,2.5-0.3,3.4c-0.7,3.5-2.8,5.6-5.7,5.6c-1.6,0-2.8-0.6-3.8-1.8
		c-1.4-1.7-2.2-4.1-2.2-6.8c0-2.7,0.8-5.3,2.2-6.9c0.9-1.1,2.3-1.7,3.8-1.7c1.3,0,2.5,0.4,3.4,1.3c1,0.8,1.4,1.5,1.9,3.1l-3,0.8
		c-0.5-1.5-1.2-2.1-2.3-2.1c-1.8,0-3,2.1-3,5.2c0,3.7,1.2,6,3,6c0.8,0,1.6-0.4,2-1.1c0.3-0.5,0.5-0.9,0.7-2.1h-2.4v-3.2H46.8z"/>
	<path d="M63.2,61.3v3.2h-6.9v3.4h5v3.3h-5v3.6h7.1V78H53V61.3H63.2z"/>
	<path d="M73.7,61.3l4.2,8.9v-8.9H81V78h-3.2l-5-10.4V78h-3.2V61.3H73.7z"/>
	<path d="M96.6,61.3v3.2h-3.5V78h-3.4V64.5h-3.6v-3.2H96.6z"/>
	<circle cx="69.7" cy="25" r="25"/>
	<path d="M44.8,21.9V0H29.1c-13.8,0-25,11.2-25,25c0,13.8,11.2,25,25,25c4.6,0,12.6,0,15.8,0"/>
</svg>
